<svg width="16" height="14" viewBox="0 0 16 14" fill="none" xmlns="http://www.w3.org/2000/svg">
<path fill-rule="evenodd" clip-rule="evenodd" d="M11.7046 0.25C12.7103 0.25 13.6778 0.6475 14.3896 1.36075C15.1021 2.0725 15.5003 3.0325 15.5003 4.0375V9.9625C15.5003 12.055 13.7978 13.75 11.7046 13.75H4.2953C2.20206 13.75 0.500305 12.055 0.500305 9.9625V4.0375C0.500305 1.945 2.19455 0.25 4.2953 0.25H11.7046ZM12.8978 5.155L12.9578 5.095C13.1371 4.8775 13.1371 4.5625 12.9496 4.345C12.8453 4.23325 12.7021 4.165 12.5528 4.15C12.3953 4.14175 12.2453 4.195 12.1321 4.3L8.75031 7C8.31531 7.36075 7.69206 7.36075 7.25031 7L3.87531 4.3C3.64206 4.1275 3.31956 4.15 3.12531 4.3525C2.92281 4.555 2.90031 4.8775 3.07206 5.1025L3.17031 5.2L6.58281 7.8625C7.00281 8.1925 7.51206 8.3725 8.04531 8.3725C8.57706 8.3725 9.09531 8.1925 9.51455 7.8625L12.8978 5.155Z" fill="#1D2023"/>
</svg>
