<svg width="30" height="34" viewBox="0 0 30 34" fill="none" xmlns="http://www.w3.org/2000/svg">
<path d="M8.88455 7.46251C8.59563 7.42021 8.30095 7.47838 8.04977 7.62729H8.02801C7.44507 7.96928 6.91965 8.39988 6.47195 8.90665C6.09887 9.33725 5.89678 9.77251 5.84393 10.1922C5.81284 10.441 5.8346 10.6928 5.90766 10.9306L5.93564 10.9462C6.35536 12.1789 6.90255 13.365 7.57099 14.4811C8.43327 16.0486 9.49388 17.4984 10.7266 18.7949L10.7639 18.8477L10.823 18.8913L10.8588 18.9332L10.9023 18.9705C12.2034 20.2069 13.6566 21.2725 15.2269 22.1417C17.0224 23.1195 18.1121 23.5812 18.7666 23.774V23.7833C18.9578 23.8424 19.1319 23.8688 19.3075 23.8688C19.8652 23.8288 20.3931 23.6021 20.8061 23.2252C21.3113 22.7775 21.7388 22.2506 22.0714 21.6645V21.6536C22.3839 21.0629 22.2782 20.5064 21.8274 20.1287C20.9226 19.3365 19.9434 18.6337 18.9034 18.0301C18.2069 17.6523 17.4996 17.8808 17.2136 18.2632L16.6027 19.0343C16.2887 19.4167 15.7197 19.3638 15.7197 19.3638L15.7042 19.3732C11.4588 18.2897 10.3256 13.9915 10.3256 13.9915C10.3256 13.9915 10.2727 13.407 10.666 13.1085L11.4308 12.4929C11.7977 12.1944 12.0526 11.4887 11.6593 10.7923C11.0571 9.75297 10.3559 8.77427 9.56542 7.8698C9.39252 7.65741 9.15037 7.51268 8.88144 7.46096M16.0586 5.59399C15.8525 5.59399 15.6548 5.67588 15.509 5.82165C15.3632 5.96741 15.2814 6.16511 15.2814 6.37125C15.2814 6.57739 15.3632 6.77509 15.509 6.92085C15.6548 7.06661 15.8525 7.1485 16.0586 7.1485C18.0235 7.1485 19.6557 7.79052 20.9475 9.02169C21.6113 9.69479 22.129 10.4923 22.4678 11.3659C22.8083 12.2411 22.9637 13.1753 22.9233 14.1111C22.9147 14.3173 22.9882 14.5184 23.1279 14.6703C23.2675 14.8222 23.4618 14.9124 23.6679 14.921C23.8741 14.9297 24.0752 14.8561 24.2271 14.7165C24.379 14.5768 24.4692 14.3826 24.4778 14.1764C24.5242 13.0254 24.3332 11.8772 23.9166 10.8032C23.4982 9.72368 22.861 8.74243 22.045 7.92109L22.0295 7.90555C20.4268 6.37436 18.3997 5.59399 16.0586 5.59399Z" fill="#77499A"/>
<path d="M16.0039 8.14975C15.7978 8.14975 15.6001 8.23164 15.4543 8.3774C15.3086 8.52316 15.2267 8.72086 15.2267 8.927C15.2267 9.13314 15.3086 9.33084 15.4543 9.4766C15.6001 9.62237 15.7978 9.70426 16.0039 9.70426H16.0304C17.4481 9.8053 18.4803 10.2779 19.2031 11.0536C19.9446 11.8526 20.3286 12.8459 20.299 14.074C20.2943 14.2801 20.3716 14.4797 20.514 14.6288C20.6565 14.7779 20.8523 14.8644 21.0584 14.8691C21.2646 14.8739 21.4641 14.7965 21.6132 14.6541C21.7624 14.5117 21.8488 14.3159 21.8535 14.1097C21.8909 12.4977 21.3716 11.1064 20.3426 9.9965V9.9934C19.2902 8.86482 17.846 8.26789 16.1081 8.1513L16.0816 8.14819L16.0039 8.14975Z" fill="#77499A"/>
<path d="M15.9743 10.7535C15.8703 10.7443 15.7655 10.7562 15.6662 10.7884C15.5669 10.8206 15.475 10.8725 15.3962 10.941C15.3174 11.0095 15.2532 11.0932 15.2074 11.187C15.1616 11.2809 15.1352 11.383 15.1298 11.4873C15.1244 11.5916 15.14 11.6959 15.1758 11.794C15.2115 11.8921 15.2667 11.982 15.338 12.0583C15.4093 12.1346 15.4952 12.1958 15.5906 12.2381C15.6861 12.2805 15.7891 12.3032 15.8935 12.3049C16.5433 12.3391 16.9583 12.535 17.2195 12.7977C17.4822 13.0619 17.6781 13.4863 17.7138 14.1501C17.7158 14.2544 17.7387 14.3573 17.7812 14.4525C17.8237 14.5478 17.885 14.6335 17.9614 14.7046C18.0377 14.7757 18.1276 14.8306 18.2257 14.8662C18.3238 14.9018 18.428 14.9173 18.5322 14.9118C18.6363 14.9063 18.7383 14.8798 18.8321 14.834C18.9258 14.7882 19.0094 14.7241 19.0778 14.6453C19.1462 14.5665 19.198 14.4748 19.2302 14.3756C19.2624 14.2763 19.2743 14.1716 19.2652 14.0677C19.2155 13.135 18.9232 12.3111 18.3247 11.7049C17.7231 11.0986 16.9039 10.8032 15.9743 10.7535Z" fill="#77499A"/>
<path fill-rule="evenodd" clip-rule="evenodd" d="M7.48861 1.52753C12.4352 0.421813 17.5648 0.421813 22.5114 1.52753L23.0384 1.64412C24.484 1.9682 25.8116 2.68631 26.8741 3.71884C27.9365 4.75136 28.6922 6.05795 29.0574 7.49374C30.3142 12.4414 30.3142 17.6248 29.0574 22.5725C28.6922 24.0083 27.9365 25.3148 26.8741 26.3474C25.8116 27.3799 24.484 28.098 23.0384 28.4221L22.5098 28.5387C19.4116 29.2305 16.2327 29.4915 13.0631 29.3144L8.93897 33.0048C8.78349 33.144 8.59349 33.2389 8.38881 33.2796C8.18413 33.3204 7.97227 33.3054 7.77534 33.2363C7.57841 33.1672 7.40363 33.0466 7.26925 32.8869C7.13487 32.7272 7.04582 32.5344 7.01138 32.3286L6.32895 28.2526C5.0207 27.8448 3.83874 27.1086 2.89581 26.1142C1.95289 25.1199 1.28043 23.9005 0.942575 22.5725C-0.314192 17.6248 -0.314192 12.4414 0.942575 7.49374C1.30779 6.05795 2.06351 4.75136 3.12594 3.71884C4.18838 2.68631 5.51601 1.9682 6.96163 1.64412L7.48861 1.52753ZM22.0031 3.80178C17.3913 2.77084 12.6087 2.77084 7.99694 3.80178L7.4684 3.91992C6.44392 4.15027 5.50317 4.65965 4.75031 5.39166C3.99745 6.12366 3.46186 7.04974 3.20283 8.06735C2.0416 12.6386 2.0416 17.4276 3.20283 21.9989C3.46198 23.0167 3.99781 23.9429 4.75096 24.6749C5.50411 25.4069 6.44519 25.9162 7.46996 26.1463L7.60986 26.1774C7.83619 26.228 8.04228 26.345 8.20178 26.5133C8.36128 26.6817 8.46694 26.8938 8.50526 27.1225L8.96229 29.8553L11.8723 27.2515C11.9885 27.1473 12.1245 27.0674 12.2722 27.0166C12.4199 26.9659 12.5762 26.9453 12.732 26.9562C15.8395 27.1756 18.9625 26.9426 22.0031 26.2644L22.53 26.1463C23.5548 25.9162 24.4959 25.4069 25.249 24.6749C26.0022 23.9429 26.538 23.0167 26.7972 21.9989C27.9568 17.4286 27.9568 12.6392 26.7972 8.06735C26.538 7.04954 26.0022 6.12333 25.249 5.3913C24.4959 4.65928 23.5548 4.15002 22.53 3.91992L22.0031 3.80178Z" fill="#77499A"/>
</svg>
