<svg width="16" height="16" viewBox="0 0 16 16" fill="none" xmlns="http://www.w3.org/2000/svg">
<path fill-rule="evenodd" clip-rule="evenodd" d="M7.54606 0.00121632C8.15891 -0.0346056 8.46542 0.72965 7.99763 1.12723C6.91314 2.04893 6.27684 3.39481 6.27684 4.84562C6.27684 7.5394 8.4606 9.72316 11.1544 9.72316C12.6052 9.72316 13.9511 9.08684 14.8728 8.00235C15.2699 7.53504 16.0335 7.84039 15.9989 8.45272C15.7601 12.6781 12.2566 16 8.00597 16C3.58439 16 0 12.4156 0 7.99403C0 3.76836 3.28409 0.277437 7.48019 0.00507439L7.48431 0.00481451L7.54606 0.00121632ZM5.92402 1.59541L5.84182 1.62264C3.1804 2.52565 1.27936 5.04736 1.27936 7.99403C1.27936 11.709 4.29096 14.7206 8.00597 14.7206C10.9701 14.7206 13.502 12.7978 14.3918 10.1148L14.4043 10.0761L14.4021 10.0775C13.459 10.6638 12.3606 10.9922 11.2093 11.0023L11.1544 11.0025C7.75401 11.0025 4.99748 8.24599 4.99748 4.84562C4.99748 3.67431 5.32684 2.55597 5.92248 1.59791L5.92402 1.59541Z" fill="#B7C0C7"/>
</svg>
